<svg xmlns="http://www.w3.org/2000/svg" viewBox="0 0 24 24" fill="white">
  <path d="M12 0C5.37 0 0 5.37 0 12s5.37 12 12 12 12-5.37 12-12S18.63 0 12 0zm5.568 8.16c-.18 1.896-.96 6.728-1.356 8.92-.168.928-.5 1.24-.82 1.268-.696.064-1.225-.46-1.9-.9-1.056-.688-1.653-1.116-2.678-1.787-1.185-.776-.417-1.202.258-1.9.177-.184 3.247-2.977 3.307-3.23.007-.032.014-.15-.056-.212s-.174-.041-.249-.024c-.106.024-1.793 1.14-5.061 3.345-.48.33-.913.49-1.302.48-.428-.008-1.252-.241-1.865-.44-.752-.244-1.349-.374-1.297-.789.027-.216.325-.437.893-.663 3.498-1.524 5.831-2.529 6.998-3.014 3.332-1.386 4.025-1.627 4.476-1.635z"/>
</svg> 